<?xml version="1.0" encoding="utf-8"?>
<!-- Generator: Adobe Illustrator 18.1.0, SVG Export Plug-In . SVG Version: 6.00 Build 0)  -->
<!DOCTYPE svg PUBLIC "-//W3C//DTD SVG 1.1//EN" "http://www.w3.org/Graphics/SVG/1.1/DTD/svg11.dtd">
<svg version="1.1" id="Layer_1" xmlns="http://www.w3.org/2000/svg" xmlns:xlink="http://www.w3.org/1999/xlink" x="0px" y="0px"
	 viewBox="0 0 500.001 550" enable-background="new 0 0 500.001 550" xml:space="preserve">
<polygon fill="#336699" points="461.307,251.867 461.313,251.872 461.323,251.863 "/>
<polygon fill="#336699" points="457.28,252.572 457.288,252.575 457.298,252.57 "/>
<path fill="#336699" d="M421.958,223.886c-0.002,0.001-0.004,0.002-0.006,0.002c-0.003,0.011-0.01,0.02-0.014,0.032
	C421.938,223.92,421.958,223.886,421.958,223.886z"/>
<polygon fill="#336699" points="459.095,179.933 459.101,179.935 459.113,179.926 "/>
<polygon fill="#336699" points="425.987,188.122 425.99,188.124 425.993,188.124 "/>
<polygon fill="#336699" points="456.482,252.568 456.494,252.573 456.503,252.569 "/>
<path fill="#336699" d="M413.54,195.628c0.006,0.003,0.012,0.004,0.019,0.008c0.003-0.002,0.006-0.004,0.009-0.006L413.54,195.628z"
	/>
<path fill="#336699" d="M492.586,235.857c-0.003,0.003-0.004,0.007-0.007,0.01c0.001,0.006,0,0.011,0.001,0.017L492.586,235.857z"/>
<path fill="#336699" d="M491.829,238.251c-0.01,0.011-0.013,0.023-0.011,0.036L491.829,238.251z"/>
<polygon fill="#336699" points="493.016,232.28 493.012,232.294 493.015,232.3 "/>
<polygon fill="#336699" points="454.266,252.038 454.273,252.046 454.281,252.043 "/>
<path fill="#336699" d="M453.268,251.795c0.006,0.008,0.016,0.011,0.027,0.009L453.268,251.795z"/>
<polygon fill="#336699" points="455.273,252.253 455.274,252.255 455.28,252.252 "/>
<path fill="#336699" d="M460.09,179.697c0.005,0,0.01,0,0.015,0c0,0,0.002-0.001,0.003-0.002L460.09,179.697z"/>
<path fill="#336699" d="M458.497,252.297c0.005,0.003,0.009,0.003,0.013,0.006c0.003-0.007,0.007-0.008,0.009-0.015L458.497,252.297
	z"/>
<polygon fill="#336699" points="490.179,203.255 490.179,203.255 490.184,203.257 "/>
<path fill="#336699" d="M482.965,200.006c0.007,0.006,0.015,0.007,0.023,0.005L482.965,200.006z"/>
<path fill="#336699" d="M480.958,199.586c0.008,0.006,0.017,0.007,0.027,0.004L480.958,199.586z"/>
<path fill="#336699" d="M497.073,214.746l-0.004,0.021c-0.64-1.19-1.198-2.579-2.05-3.644c-0.656-0.82-2.054-1.459-2.448-2.346
	c-0.824-1.857,1.975-3.946-0.962-4.952c-1.636,0.457-4.914-2.249-6.448-2.88c-2.818-1.159-5.089-1.354-8.211-1.353
	c-2.097,0.857-3.308,4.367-4.714,4.364c-3.701-0.008-2.969-2.993-1.768-4.711c1.772-2.536,3.309-5.278,4.902-7.808
	c1.083-1.72,6.047-5.378,3.581-7.311c-1.852,0.003-3.433-1.018-5.204-1.272c-1.757-0.252-3.968-0.011-5.607-0.031
	c-4.446,0.244-0.653-1.84-4.035-3.134c-0.27-0.013-0.539-0.027-0.809-0.04l0.041,0.011c-4.236,0.049-7.257,1.544-9.485,5.501
	c-2.06-0.648,1.757-4.539-2.969-4.999l0,0c-0.527-0.312-0.954-0.266-1.224,0.339c0.001,0.001,0.003,0.001,0.004,0.001
	c-5.47,2.705-9.81,6.981-12.743,12.285c-2.935,5.309-3.174,13.182-7.949,17.213c1.643-6.019,2.064-17.38-2.981-21.873
	c-2.578,1.301-9.677,8.945-12.432,7.511c-2.435,1.344-3.457,3.552-4.08,6.12c-0.41,1.686-0.105,5.25-2.753,3.095l0.006-0.001
	c-7.844,0.108-4.167,16.567-2.696,20.315c3.214,8.188,5.443,16.27,3.039,25.037c-0.986-6.722-0.874-13.817-6.517-18.894
	c-1.288-1.065-5.852-3.698-7.545-3.031c-2.066,0.814-1.174,2.19-1.069,4.253c0.175,3.436-0.997,6.683-1.051,10.104
	c-0.013,0.804,0.721,3.77,0.395,4.561c-0.682,1.652-1.413,0.116-2.361,1.426c-2.473,3.416,3.548,10.39,5.682,13.159
	c1.601,2.078,9.484,12.744,4.099,13.145c-2.836-1.786-4.102,0.59-5.638-3.537c-1.617-4.345-2.537-9.033-4.366-13.402
	c-3.421-8.173-8.595-15.724-14.859-22.014c-5.83-5.855-12.716-10.607-20.181-14.177c-4.214-2.015-8.715-3.933-13.316-4.502
	c-4.318-0.535-8.357-1.672-13.066-1.272l0,0c-0.358-0.421-6.171-0.261-6.42-0.004c-2.302-1.247-1.512-4.03-1.459-6.246
	c0.075-3.187,0.011-3.853,2.967-5.158c5.6-2.474,10.31-4.304,14.085-9.409c3.085-4.173,4.872-9.481,4.223-14.682
	c-0.566-4.531-4.285-10.351-9.388-10.729c-0.876-1.388-7.014-1.077-8.418-0.398c-4.173,0.22-8.529,4.45-8.881,8.504
	c-0.212,2.438,0.665,4.764,1.93,6.807c0.806,1.3,4.394,3.792,4.553,5.111c0.164,1.361-1.656,2-2.903,2.322
	c-1.254,0.323-3.655,0.833-4.94,0.995c-1.548,0.195-3.65,0.14-5.005,0.223c-0.532,0.033-3.533-0.647-4.02-0.053l0.015-0.013
	c-9.162-0.809-18.499-4.085-26.065-11.256c-4.99-4.729-8.695-11.121-11.312-17.403c-1.111-2.668-2.413-5.783-3.174-8.37
	c-0.7-2.382-0.301-4.418-3.603-4.408c-0.192-0.346-0.483-0.53-0.79-0.086c-1.13-1.976,6.361-1.558,7.739-3.748
	c1.516-2.409,0.851-7.963-3.071-6.769c-4.17,0.069-8.339,0.139-12.509,0.208c-2.085,0.035-4.17,0.069-6.254,0.104
	c-1.014,0.017-4.573-0.673-5.175-0.509c-2.835,0.773-2.145,2.844-1.547,5.21c-0.399-1.577,0.756,5.386,0.462,2.064
	c0.181,2.04-0.363,3.15-1.098,5.054c-1.167,3.024-2.099,6.132-3.319,9.139c-0.816,2.011-2.621,8.29-4.759,9.243
	c-2.367,1.055-8.243-7.958-9.716-9.798c-7.798-9.741-17.692-16.997-28.372-23.61c-11.499-7.12-25.077-10.532-38.584-10.698
	c-3.552-0.044-7.015,0.252-10.561-0.084c-0.181-0.017-1.639-0.637-1.959-0.606c-1.285,0.126-2.406,1.157-3.749,1.524
	c-1.598,0.436-2.952,0.186-4.521,0.566c-2.608,0.632-5.627,2.306-8.015,3.459c-5.119,2.472-9.781,5.869-13.143,10.476
	c-0.674,0.923-1.324,2.74-2.294,3.381c-0.867,0.573-1.765,0.042-2.687,0.716c-1.937,1.416-2.954,6.055-3.649,8.311
	c-3.415,11.084-2.716,24.517,5.583,33.352c6.635,7.065,19.55,11.583,28.151,5.268c4.58-3.363,7.915-10.299,5.444-15.784
	c-2.219-4.925-9.537-8.02-14.074-4.112c-4.371,3.765-0.331,12.877,5.203,10.072c1.396-0.708,3.589-3.691,3.042,0.414
	c-0.409,3.065-4.694,5.019-7.02,6.291v0c-7.903,1.083-16.615-3.384-21.247-10.109c-2.652-3.85-2.737-9.743-2.503-14.246
	c0.121-2.337,0.244-6.199,1.501-8.313c1.463-2.46,1.444-1.416,3.096,0.432c1.249,1.396,2.709,3.461,4.658,3.995
	c1.83,0.501,4.704-0.263,4.608-2.82c-0.06-1.603-2.39-2.703-3.116-4.059c-0.888-1.658-0.943-3.754-0.493-5.541
	c1.551-6.166,9.782-13.24,16.016-14.301c-4.011,4.645-7.291,12.06-5.58,18.245c0.71,2.566,8.028,12.648,9.542,5.381
	c0.51-2.447-2.651-5.849-2.691-8.766c-0.022-1.648,1.189-8.333,3.924-8.301c2.188,0.026,2.02,4.691,3.972,5.104
	c2.956,0.626,2.035-4.54,2.957-6.097c3.265-5.512,9.169,5.006,11.551,7.017c6.401,5.403,7.802-3.926,11.787-6.256
	c2.805-1.64,8.037-1.18,11.152-1.478c0.628-0.06,0.882,0.683,1.679,0.605c0.609-0.06,1.477-0.801,2.466-0.872
	c5.768-0.416,14.187,5.261,17.786,9.294c-1.007,0.739-3.244,0.373-4.045,0.395c-0.121,0.003-2.422,0.056-2.391,0.058
	c-0.729-0.049-1.277-0.288-2.004-0.35c-5.203-0.44-12.203,2.294-12.732,8.626c-0.27,3.238,1.768,5.999,4.387,7.806
	c2.819,1.944,7.14,0.782,6.226-3.182c-0.679-2.946-3.59-3.831-0.011-6.119c3.243-2.072,8.779-1.109,12.163-0.041
	c2.967,0.936,5.381,2.031,8.258,2.489c3.319,0.528,5.628,3.689,7.829,6.367c2.168,2.638,6.023,6.375,7.406,9.45
	c1.721,3.826-2.428,6.877-5.318,9.076c-6.491,4.937-14.385,7.47-22.204,9.268c-2.352,0.541-6.213,0.825-8.211,0.628
	c-2.171-0.214-9.462,0.106-10.341-2.353c-0.577-1.614,0.841-1.606,2.222-2.702c1.517-1.204,2.736-2.723,3.627-4.434
	c1.769-3.398,1.773-6.891-0.534-10.068c-1.211-1.668-6.536-6.262-8.813-4.143c-6.199-2.304-12.978,2.946-15.473,8.336
	c-2.879,6.218,0.26,14.196,4.668,18.95c2.723,2.936,6.066,4.662,9.68,6.268c1.985,0.882,4.441,1.594,5.545,3.619
	c0.91,1.669,0.865,4.933,0.548,6.661c-0.745,4.057-4.073,2.678-7.695,2.851c-17.548,0.839-34.036,9.084-46.49,21.189
	c-5.798,5.635-10.591,12.232-14.203,19.442c-1.965,3.922-3.619,8.021-4.868,12.223c-1.171,3.943-1.799,8.2-3.952,11.778
	c0.123-0.204,0.245-0.408,0.368-0.611c-2.757-0.008-2.606-3.407-6.36-1.086c-0.381-7.523,5.744-12.454,9.317-18.383
	c1.651-2.739,3.693-5.474,2.298-8.185c-0.563-1.093-1.46-0.869-1.966-2.254c-0.47-1.285,0.347-3.6,0.291-4.984
	c-0.089-2.199-0.678-4.346-0.805-6.539c-0.086-1.487,0.427-3.266,0.173-4.663c-0.521-2.861-2.241-2.709-4.878-1.765
	c-8.169,2.925-7.668,10.075-10.466,16.764c-1.993-9.554,4.109-17.099,6.119-26.042c0.821-3.653,0.971-10.75-1.875-13.739
	c-1.293-1.358-2.775-0.629-4.051-1.7c-0.938-0.788-1.064-2.039-1.471-3.108c-1.492-3.917-2.51-4.399-6.304-5.787
	c-3.402-1.245-5.495-6.018-8.858-6.723c-7.248-1.52-5.953,17.297-5.27,21.64c-5.042-6.819-5.416-15.626-11.27-22.213
	c-2.372-2.669-5.604-5.45-9.195-6.302c-1.54-0.366-3.664-0.702-4.164,1.328c-0.177,0.721,1.585,2.562,0.361,3.114
	c-2.484-2.466-4.459-4.912-8.221-4.989c-0.616-0.013-2.053-0.019-2.573,0.288c-1.257,0.743-0.541,2.005-1.331,2.613
	c-2.462,1.891-13.648-1.324-13.867,3.968c-0.06,1.444,3.559,4.729,4.427,6.143c1.346,2.194,4.236,5.262,5.045,7.561
	c0.567,1.611-0.266,4.727-2.96,3.938c-1.034-0.303-1.469-1.955-2.311-2.562c-1.233-0.889-2.232-1.24-3.778-1.312
	c-2.466-0.115-4.795,0.884-6.916,1.999c-1.46,0.767-6.037,2.275-6.943,3.415c-1.208,1.52,0.626,2.708-0.217,4.787
	c-0.223,0.55-1.564,1.263-1.854,1.653c-1.345,1.807-1.787,2.911-2.216,5.173c-0.392,2.072-1.556,5.823-0.213,7.601
	c1.119,1.483,3.226,1.038,4.124,3.092c0.773,1.768,0.097,4.155,0.111,6.018c0.026,3.596,0.76,7.098,2.773,10.134
	c1.099,1.658,2.74,4.185,4.969,3.137c2.374-1.117,1.561-3.693,3.982,0.22c3.36,5.429,6.146,9.572,12.724,11.629
	c11.285,3.529,26.493-3.067,27.414-15.783c0.102-1.404,0.361-4.918-1.044-5.909c-3.051-2.154-2.544,1.695-2.76,3.382
	c-0.626,4.894-3.74,9.459-8.384,11.384c-8.702,3.607-18.855-1.588-23.098-9.351c-5.427-9.93-1.052-19.284,6.582-26.599
	c4.049-3.88,8.948-6.898,14.533-7.951c2.907-0.548,5.89-0.552,8.816-0.152c3.058,0.419,6.819,2.82,9.874,2.119l-0.001,0
	c0.343,1.324,3.796,2.453,4.919,3.157c1.953,1.223,3.814,2.593,5.532,4.125c3.367,3.003,6.178,6.594,8.31,10.555
	c5.443,10.111,7.405,22.46,9.528,33.608c2.215,11.633,4.484,23.349,6.201,35.056c0.459,3.13,2.961,7.558,3.204,1.868
	c0.135-3.17-0.771-12.006,2.576-13.919c-0.255,10.134-0.517,19.634,1.446,29.662c1.86,9.505,5.413,18.267,10.266,26.647
	c9.369,16.178,24.429,28.651,43.439,31.667c-2.685,2.607-10.186-1.091-13.092-2.138c-5.069-1.827-9.938-4.176-14.547-6.954
	c-8.877-5.35-17.041-12.16-23.262-20.447c-6.64-8.844-11.336-19.137-15.696-29.233c-3.882-8.99-6.684-17.944-14.418-24.571
	c-6.424-5.504-14.733-8.326-23.024-5.517c-7.674,2.6-13.359,9.403-14.232,17.442c-0.793,7.304,4.726,19.087,14.039,15.327
	c3.166-1.278,5.813-5.144,4.478-8.61c-2.052-5.328-8.201-3.083-8.821,1.603c-0.281,2.124,0.043,3.628-3.066,1.848
	c-1.914-1.096-2.996-3.343-3.391-5.418c-0.88-4.623,1.177-8.987,4.662-11.961c5.216-4.451,17.952-9.143,22.071-0.828
	c-2.258-0.589-7.724-1.771-9.479,0.837c-2.047,3.043,2.738,4.056,3.762,6.467c0.725,1.705-0.139,2.166-0.232,3.736
	c-0.099,1.656,0.695,3.656,1.359,5.134c0.869,1.934,4.526,4.56,4.426,6.246c-0.042,0.708-1.836,0.913-2.054,2.058
	c-0.128,0.67,1.717,3.044,2.022,3.455c2.082,2.81,4.849,4.836,8.158,5.977c7.387,2.547,15.838,3.34,21.304,9.559
	c-3.121-1.041-6.192-2.058-9.532-2.126c-2.517-0.051-8.746,1.02-8.56,4.478c0.109,2.022,4.868,5.175,6.379,6.528
	c1.309,1.171,7.35,4.06,7.347,5.433c-0.003,1.191-1.983,1.747-1.905,3.254c0.074,1.414,2.116,3.151,3.019,3.921
	c2.991,2.549,6.583,3.331,10.412,3.707c9.159,0.9,16.799,3.032,25.287,6.496c7.649,3.122,15.276,6.119,23.507,7.349
	c3.125,0.467,6.498,1.328,9.374,0.03c1.544-0.697,2.147-1.545,4.004-1.781c2.049-0.26,4.256,0.138,6.325,0.071
	c4.137-0.134,8.299-0.984,12.317-1.942c1.891-0.451,3.77-0.965,5.622-1.556c1.065-0.34,5.341-2.679,6.428-2.367
	c4.267,1.227-10.841,11.228-11.104,12.247c-0.348,1.345,1.428,2.034,1.34,3.285c-0.087,1.241-2.61,2.877-3.57,3.636
	c-1.284,1.015-2.612,1.931-4.199,2.405c-1.328,0.397-3.74-0.16-4.92,0.482c-2.921,1.589,0.397,5.529,2.144,7.111
	c3.063,2.773,7.201,3.04,11.122,3.486c0,0,0-0.001,0-0.001c2.476,2.274,0.577,6.281,5.578,5.387c0.005-0.218,0.01-0.436,0.015-0.654
	l0,0c-0.005,0.218-0.01,0.436-0.015,0.654c6.909,0.774,9.71-6.198,14.941-9.057l0-0.001c0.203,0.011,0.406,0.024,0.609,0.037
	c2.129,1.238,4.511,3.534,2.913,5.465c-1.84,2.223-7.988,3.961-10.76,4.926c-3.72,1.295-7.609,1.655-10.983,3.808
	c-2.26,1.441-6.47,4.768-6.976,7.619c-0.234,1.315,0.494,2.231,0.011,3.551c-0.624,1.705-2.346,3.279-3.186,4.94
	c-0.925,1.829-3.547,7.602-0.522,8.589c0.995,0.324,3.375-1.155,4.455-1.307c1.364-0.192,4.281-0.418,5.589-0.09
	c2.675,0.669,3.599,2.325,1.399,4.783c-1.332,1.488-2.219,1.224-3.291,3.3c-0.786,1.522-1.227,3.329-1.598,4.998
	c-0.512,2.304-2.358,9.088,1.569,9.347c2.76,0.182,2.869-2.472,4.929-0.504c0.759,0.725,0.738,3.695,1.012,4.711
	c0.512,1.894,1.222,3.71,2.131,5.453c1.157,2.218,3.76,7.286,6.498,7.846c1.227,0.251,2.392-0.873,3.481-0.465
	c1.575,0.589,2.955,2.728,4.557,3.578c5.036,2.675,13.945,4.439,17.701-1.351c-11.373,3.5-22.465-5.361-25.803-15.873
	c-3.769-11.869,0.85-26,5.273-37.067c5.233-13.095,13.124-24.777,18.993-37.553c5.554-12.092,10.116-24.265,11.787-37.512
	c2.224,3.809,3.734,6.342,8.205,6.902c2.315,0.29,4.162,0.477,6.333-1.151c1.66-1.245,2.163-3.578,4.146-4.491
	c1.687,1.431,1.502,7.011,1.941,9.059c0.751,3.506,1.722,6.959,2.873,10.355c2.254,6.657,5.129,13.109,8.139,19.458
	c5.848,12.334,12.605,24.313,17.416,37.107c4.266,11.345,7.664,24.515,2.228,36.074c-2.321,4.935-6.213,9.791-10.924,12.677
	c-1.97,1.207-4.155,2.061-6.453,2.387c-1.994,0.283-7.297-1.261-8.582,0.21c2.882,2.861,7.952,3.217,11.748,2.465
	c4.539-0.9,7.258-3.936,11.178-5.667c1.61-0.711,3.021,0.16,4.421-0.369c1.261-0.476,2.744-2.714,3.54-3.7
	c2.922-3.618,4.567-7.8,5.565-12.289c1.034-4.649,0.791-3.055,4.462-2.047c4.419,1.213,3.374-5.026,2.953-7.97
	c-0.587-4.101-1.373-6.206-4.27-8.985c-3.061-2.937-1.745-4.009,1.158-5.551l-0.051,0.038c1.748,0.293,2.571-0.537,3.828-0.537
	c1.716,0,3.307,1.751,4.916,1.837c3.174,0.171,2.982-1.638,2.277-4.817c-0.758-3.42-3.436-5.697-4.363-8.799
	c-0.399-1.333,0.24-2.417-0.173-3.747c-0.378-1.217-1.948-2.537-2.78-3.409c-5.075-5.313-10.129-5.43-16.747-7.593
	c-1.673-0.547-6.801-2.059-7.815-3.752c-1.182-1.974,0.72-3.286,1.223-5.348c0.547,0.476,1.078,0.381,1.597-0.068
	c4.28,3.842,8.133,8.116,14.069,8.628c5.099,0.44,5.009-4.271,8.791-6.594c2.594,1.87,13.524-5.451,11.936-9.397
	c-0.782-1.944-6.32-1.793-8.259-2.709c-1.137-0.537-4.024-1.879-4.515-3.228c-0.597-1.643,1.427-2.761,0.922-4.332
	c-0.637-1.981-6.343-4.095-7.97-5.76c-2.766-2.83-4.842-5.892-8.695-7.425c-6.915-2.75-14.471,0.391-18.221,6.503
	c-0.799,1.303-0.401,2.211-2.11,2.292c-1.421,0.067-2.567-1.696-3.142-2.768c-2.206-4.112-2.838-10.168-3.649-14.716
	c-1.603-8.996-1.617-18.186,1.014-26.997c4.141-13.868,17.363-28.354,33.332-25.047c8.478,1.756,16.007,8.887,16.661,17.684
	c0.298,4.002-0.45,8.901-3.166,12.022c-3.263,3.75-8.508,4.432-12.556,6.992c-0.243-0.367-0.515-0.475-0.803-0.001l0.001,0.002
	c-0.329-0.422-6.998-2.239-7.825-1.366c-2.489,2.63,5.164,3.569,2.8,6.237c-2.888-0.026,2.755,3.961,3.376,4.27
	c3.409,1.699,7.858,2.324,11.609,2.88c6.521,0.967,15.721,2.474,21.725-1.393l0,0c7.058,0.401,15.399-7.266,20.055-11.851
	c5.809-5.722,10.199-12.612,13.417-20.053c3.286-7.601,4.882-14.673,5.087-22.344c0.122-4.568-0.174-8.871-1.703-13.23
	c-0.791-2.254-2.423-4.336-3.12-6.555c-0.399-1.271,0.046-2.525-1.297-3.58l0.04,0.029c-1.616-3.708-4.079-5.591-7.596-5.161
	c-0.176-0.786-1.544-0.355-1.462-1.569c3.596-0.569,6.389,2.275,8.933-0.391c0.957-1.003,1.248-2.47,2.427-3.516
	c1.115-0.988,2.538-1.556,3.653-2.547c2.215-1.97,3.84-4.966,3.127-7.989c-0.602-2.552-2.951-4.885-5.637-3.583
	c-2.157,1.045-2.838,4.48-5.198,5.741c-3.022,1.614-6.394,0.648-9.345-0.607c-7.452-3.168-13.981-7.641-22.145-9.041v0
	c-1.385-0.799-4.856-1.024-6.44-0.752v0c-0.269-0.002-0.538-0.005-0.808-0.007v0c-5.617-0.029-11.31,1.123-15.164,5.579
	c-1.923,2.223-2.997,5.031-2.433,7.968c0.314,1.637,3.836,5.371,3.6,6.394c-3.463-0.365-7.391-6.275-10.46-1.316
	c-1.13,1.827-0.464,3.575-1.851,5.317c-1.615,2.028-4.626,3.833-6.859,5.125c-5.151,2.98-9.327,2.751-15.024,2.45
	c-8.144-0.431-3.863,7.274,1.619,6.652v-0.001c9.932,4.425,17.687-2.414,27.447-2.19c2.125,0.049,3.645,0.46,5.621,0.086
	c1.354-0.256,2.908-0.95,4.466-1.205c3.186-0.521,4.296-1.171,3.925-4.672c0.934-0.994,7.9,1.936,9.731,2.481
	c3.802,1.13,7.49,3.064,10.036,6.172c2.654,3.238,5.442,14.372-1.184,14.401c-2.26,0.01-6.29-3.98-6.401,1.039
	c-0.067,3.01,4.151,4.987,6.705,4.778c7.198-0.588,10.898-9.665,9.63-15.733c0.189-0.977,0.283-1.94-0.402-2.793
	c-0.238,0.026-0.477,0.051-0.715,0.076l0,0c0.238-0.025,0.477-0.051,0.715-0.076c0.359-7.48-8.936-13.551-14.936-15.835v0
	c-3.162-1.02-5.522-1.519-8.898-1.556c0.549-5.069,0.082-5.844-3.58-6.021v0c-1.466,0.004-2.638,0.373-4.074,0.524
	c4.117-7.691,10.16,4.299,14.983,4.598c1.288,0.08,2.57-0.289,3.644-0.989c0.608-0.396,2.089-2.671,2.812-2.747
	c1.101-0.117,2.48,1.877,3.396,2.49c1.588,1.062,3.515,1.276,5.081,2.186c3.278,1.904,0.406,1.61,1.285,5.081
	c0.787,3.11,3.181,5.61,3.773,8.972c1.044,5.936-4.623,14.053,2.529,17.645c-2.398,4.618-4.865,7.835-5.016,13.437
	c-0.182,6.747,5.796,1.732,9.878,2.528c-1.49,3.8-6.263,3.28-9.39,4.899c-2.307,1.194-8.237,5.229-8.382,8.053
	c-0.078,1.525,2.001,2.602,1.325,4.021c-0.539,1.132-4.39,2.127-5.543,2.997c-1.9,1.434-7.689,6.078-8.134,8.424
	c-0.268,1.413,1.263,2.026,0.427,3.414c-0.419,0.695-3.327,1.131-3.975,1.28c-3.257,0.748-7.873,1.099-10.837,1.009
	c-3.118-0.094-5.799-1.144-9.029-1.638c-1.604-0.245-4.672-0.107-5.166-2.764c15.142,0.083,28.132-13.547,21.395-28.755
	c-1.222-2.758-3.362-5.876-4.834-8.099c-1.86-2.81-4.507-5.007-7.52-6.521c-5.78-2.904-12.151-2.556-18.128-2.024
	c-15.863,1.411-26.898,17.798-30.753,31.559c-0.45,1.607-0.834,9.24-1.969,9.91c-1.241,0.734-5.28-3.364-7.282-3.686
	c-3.074-0.494-5.931,0.401-8.285,2.36c-3.614,3.007-2.589,1.505-3.196-2.809c-2.229-15.844-14.387-36.319-32.549-36.702v0
	c-2.859-0.437-5.699-0.486-8.486,0.44c0.024,0.221,0.049,0.442,0.073,0.664h0c-0.024-0.221-0.049-0.442-0.073-0.664
	c-12.639,0.984-22.829,13.768-22.948,26.021c-0.077,7.992,5.074,14.163,12.184,17.353c1.485,0.666,9.617,2.282,7.718,4.532
	c-0.862,1.022-5.732,1.938-7.043,2.115c-5.461,0.739-12.57,1.529-17.617-0.327c-3.351-1.232-1.062-1.975-1.974-4.677
	c-0.735-2.178-4.855-5.578-6.652-6.988c-1.886-1.48-5.757-1.992-6.252-4.293c-0.301-1.399,1.573-2.083,0.76-4.045
	c-0.44-1.063-2.108-2.345-2.895-3.127c-2.677-2.662-5.021-3.744-8.687-4.59c-3.322-0.766-6.098-2.225-6.915-5.89
	c3.643-1.001,11.214,6.653,10.999-0.409c-0.081-2.657-0.301-5.603-1.267-8.093c-1.062-2.735-4.731-4.562-5.152-7.304
	c9.482-0.149,3.337-9.167,4.212-15.22c0.391-2.705,1.503-4.954,2.859-7.279c0.876-1.502,2.496-2.955,1.885-4.76
	c-1.748-5.168-8.494-2.341-11.765-1.386c-2.034,0.594-2.461-0.142-4.139,1.796c-1.711,1.976-2.863,4.835-3.838,7.199
	c-2.16,5.239-3.909,10.954-4.524,16.591c-1.089,9.991,2.562,21.283,7.201,30.07c8.76,16.594,24.4,27.24,42.213,27.092
	c2.375-0.02,4.877,0.575,7.846,0.114c4.941-0.768,11.561-1.234,15.779-4.187c1.552-1.086,1.832-1.563,1.989-3.259
	c0.107-1.162-0.879-1.395-0.479-2.691c0.206-0.667,1.052-0.842,1.347-1.387c0.696-1.289,2.305-1.253,0.72-2.657
	c-0.859-0.761-6.109,0.792-7.588,0.699c-10.543-0.665-17.978-9.468-15.59-19.727c1.177-5.057,4.381-9.318,8.333-12.61
	c4.526-3.77,8.979-4.022,14.498-5.318v0c1.168,0.569,2.375,0.666,3.62,0.287c0.02-0.212,0.04-0.424,0.061-0.637l0,0
	c-0.02,0.212-0.04,0.424-0.06,0.637c0.595,0.443,1.268,0.556,1.99,0.465c0.025-0.198,0.049-0.396,0.074-0.595l0,0
	c-0.025,0.198-0.049,0.397-0.074,0.595c0.833,0.707,3.378,1.59,4.452,1.063c0.165,2.209,6.39,4.995,8.146,6.745
	c2.892,2.882,5.018,6.404,6.697,10.093c3.575,7.851,4.757,16.578,3.949,25.123c-0.4,4.233-1.267,8.406-2.26,12.536
	c-0.791,3.291-1.151,8.002-3.145,10.826c-2.26,3.2-3.53,3.174-5.275,0.419c-1.698-2.68-3.445-4.897-6.496-6.128
	c-1.663-0.671-7.867-0.107-8.608-0.91c-1.804-1.956,3.049-4.15,4.29-5.242c5.364-4.721,9.947-10.735,11.706-17.735
	c1.576-6.275,0.957-13.084-1.784-18.956c-1.88-4.027-8.857-14.258-14.445-12.095l-0.001-0.001c-2.276-1.341-3.755-0.908-6.135-0.485
	c-0.614,0.109-2.539,0.415-3.237,0.661c-2.938,1.035-5.835,3.052-7.88,5.384c-4.591,5.233-6.12,13.4-1.437,19.047
	c4.785,5.77,14.898,5.997,18.859-0.755c1.538-2.621,1.638-5.759,0.435-8.537c-0.833-1.924-5.281-4.948-3.414-6.923
	c0.238,0.596,3.464,1.225,4.204,1.321c6.994,6.07,7.294,17.493,2.815,25.108c-2.452,4.168-6.504,7.085-10.518,9.657
	c-4.147,2.656-10.496,6.194-15.305,7.147c-4.325,0.857-8.237,1.51-12.746,1.211c-2.483-0.165-5.376,0.678-7.77,0.146
	c-1.579-0.352-4.046-1.514-5.828-2.001c-9.836-2.688-19.176-7.656-26.736-14.479c-30.835-27.831-25.632-83.823,5.521-109.397
	c8.705-7.146,19.311-12.267,30.543-13.83c8.215-1.143,25.103-1.647,26.55,10.011c0.529,4.258-4.895,4.663-4.074,8.146
	c1.037,4.4,7.75,6.061,11.426,4.943c8.466-2.577,11.942-13.415,8.35-20.909c-1.908-3.981-5.134-7.413-8.834-9.807
	c-3.067-1.984-9.442-2.687-10.553-6.485c-0.764-2.613-0.561-8.492,1.816-10.198c1.554-1.116,4.342-1.274,6.154-1.767
	c3.213-0.874,6.363-1.961,9.418-3.279c9.801-4.228,18.929-10.99,25.216-19.629c3.173-4.359,5.194-9.097,7.066-14.106
	c0.838-2.243,1.525-4.565,2.4-6.786c1.01-2.564,1.116-4.935,1.783-7.142c1.051-3.477,6.153-4.956,9.954-3.619
	c2.827,0.994,1.463,1.243,1.66,4.653c0.163,2.824,1.236,5.506,2.133,8.158c2.181,6.45,4.902,12.309,8.728,17.968
	c-0.233-0.344,1.597,1.93,1.594,2.319c-0.015,1.697-0.526,0.495-1.38,1.247c-0.616,0.543-1.463,0.569-2.171,1.335
	c-0.961,1.038-1.299,3.411-1.789,4.748c-0.368,1.003-1.223,2.275-1.116,3.352c0.126,1.273,2.114,0.13,1.251,1.904
	c-1.306,2.686-2.51-1.067-2.686-2.023c-0.605-3.282,0.057-4.726-2.313-7.283c-1.721-1.857-2.873-3.245-4.057-5.551
	c-1.097-2.137-2.103-5.51-5.087-4.525c-2.107,0.695-3.121,4.261-4.121,5.968c-1.165,1.988-3.059,3.114-4.261,4.945
	c-1.961,2.987-1.095,7.412-0.24,10.53c-3.591-2.272-2.79-1.763-2.935-6.065c-0.029-0.876-1.901-8.845-3.566-6.955
	c0.001-0.002,0.002-0.002,0.003-0.003c-0.154-0.333-1.805-0.896-2.296-0.377c-0.733,0.775,0.516,2.289,0.713,3.015
	c0.562,2.079,4.228,7.192,1.578,8.53c0.004,0.001,0.007,0.003,0.011,0.004c-2.986,1.095-5.219,6.275-5.074,9.133
	c0.115,2.251,1.258,4.723,2.82,6.347c0.867,0.902,6.845,3.353,5.117,5.181c-0.598,0.633-6.432-2.938-7.319-3.22
	c-2.992-0.953-6.086-1.229-9.177-0.595c-1.746,0.358-6.202,1.256-5.878,3.659c0.28,2.076,4.436,4.437,5.39,6.596
	c1.059,2.397,0.982,4.12,0.371,6.229c-0.199,0.687-0.959,1.115-1.147,1.996c-0.175,0.818,0.392,2.276,0.514,3.18
	c0.812,6.016,1.81,11.767,6.587,16.056c3.653,3.279,8.798,4.918,13.579,3.264c5.299-1.834,6.766-9.131,12.093-9.893
	c1.039,1.244,3.694,5.516,3.747,7.295c-4.133-0.946-9.176-1.692-11.814,2.466c-2.639,4.161,0.982,7.323,1.823,11.369
	c0.795,3.825-0.837,9.928,2.069,12.96c4.098,4.276,5.352-2.092,5.662-5.073c0.507-4.87,1.626-8.816,3.655-13.235
	c0.53-1.155,0.766-4.998,1.812-5.642c1.359-0.836,4.242,0.708,5.664,0.787c9.607,0.536,13.943-10.671,15.565-18.204
	c0.859-3.99-0.98-5.52-1.432-8.951c-0.214-1.629,0.774-4.227,1.445-5.706c0.981-2.162,4.143-4.153,4.653-6.309
	c1.173-4.956-7.118-2.931-9.396-2.592c-2.295,0.341-3.39,0.242-5.717,1.414c-1.132,0.571-4.642,3.819-5.498,3.831
	c-1.34,0.019-2.431-0.858-1.899-2.336c0.512-1.422,3.678-2.053,4.809-2.869c2.522-1.82,5.848-6.853,5.26-10.042
	c-0.244-1.323-1.427-2.265-1.914-3.477c-0.551-1.369-0.087-2.602-1.395-3.712c-1.082-0.918-2.305,0.009-2.838-1.774
	c-0.341-1.142,1.203-3.288,1.607-4.283c0.604-1.487,0.82-4.421,2.629-4.382c1.437,0.031,4.569,4.565,5.801,5.64
	c3.821,3.337,8.331,6.105,12.862,8.378c5.101,2.559,10.471,4.334,16.048,5.532c3.174,0.682,3.628,0.543,3.96,3.942
	c0.292,2.995,0.452,6.336-0.431,9.244c-2.283-1.227-8.871,3.189-10.831,4.551c-3.615,2.511-6.671,5.971-8.347,10.055
	c-2.897,7.06-0.543,15.159,6.087,19.254c2.692,1.663,6.037,2.431,9.077,1.231c2.245-0.886,6.33-4.382,5.208-7.207
	c-0.537-1.352-2.659-1.37-3.478-2.629c-0.665-1.021-0.697-2.76-0.496-3.881c0.741-4.136,5.255-7.083,8.85-8.619
	c7.93-3.387,18.11-1.754,26.252,0.254c7.164,1.767,13.952,4.894,19.834,9.332c6.197,4.675,11.2,10.666,15.188,17.271
	c2.517,4.169,4.627,8.59,6.225,13.186c1.27,3.653,1.341,8.982,3.71,12.015c-1.011,1.527-0.007,4.128,0.185,5.765
	c0.3,2.554,0.44,5.14,0.469,7.71c0.065,5.745-0.488,11.496-1.63,17.128c-2.075,10.234-6.434,19.326-12.366,27.914
	c-11.121,16.099-31.901,27.233-51.739,26.345c-15.546-0.696-38.625-10.602-36.178-29.267c0.447-3.41,1.96-8.003,4.878-10.148
	c1.001-0.735,2.948-2.174,3.39-0.025c0.207,1.008-2.493,4.42-2.696,5.711c-1.567,9.94,11.116,14.281,18.165,9.096
	c7.462-5.488,5.804-16.77-0.143-22.641c-3.167-3.126-7.49-5.045-11.968-5.236c-3.598-0.153-5.313,1.27-7.745,3.247
	c0.593-0.474,1.147-0.988,1.663-1.543c-2.47-1.38-7.337,4.42-8.7,5.977c-2.975,3.398-5.085,7.442-6.136,11.823
	c-2.07,8.621-0.138,17.44,5.202,24.507c5.663,7.494,13.981,12.687,22.97,15.309c4.942,1.442,10.14,2.69,15.26,3.306
	c2.651,0.319,5.289,0.408,7.956,0.273c3.25-0.164,4.486,0.664,7.478,1.349c3.086,0.706,6.779-0.822,9.728-1.277
	c3.185-0.492,6.994-1.151,10.511-2.536c10.032-3.949,19.919-8.546,30.22-11.339c2.125-0.576,2.859-0.73,4.995-0.821
	c1.821-0.077,3.516-0.155,5.29-0.635c3.579-0.968,7.366-2.958,9.552-6.021c0.47-0.658,1.28-1.553,1.309-2.405
	c0.021-0.604-0.985-1.883-0.978-1.959c0.194-2.222,0.857-1.967,3.025-3.469c1.752-1.214,3.206-2.793,4.747-4.246
	c1.334-1.258,4.382-2.981,5.143-4.617c1.712-3.681-3.636-4.864-5.998-5.293c-0.799-0.145-4.832-0.388-5.039-1.284
	c-0.356-1.538,4.14-2.487,4.829-2.731c4.907-1.738,10.259-2.951,14.479-6.141c1.424-1.077,9.068-9.678,3.779-8.758
	c-0.406-0.639,3.604-6.512,4.139-7.711c0.258-0.579,1.638-2.666,1.687-3.294c0.109-1.379-1.012-2.335-0.78-3.67
	c0.482-2.768,6.772-3.951,5.012-7.326c-1.001-1.919-5.727-1.332-5.207-3.486c0.433-1.793,7.654-0.513,8.735-0.247
	c3.236,0.796,6.668,2.377,8.826,4.952c3.497,4.174,3.792,12.813-2.498,14.624c0.606-9.486-14.302-6.764-9.825,2.188
	c4.242,8.483,15.024,5.326,17.604-2.665l0,0c7.231-12.427-4.139-25.297-16.178-27.12c-11.954-1.81-22.734,7.106-28.138,17
	c-7.547,13.819-11.989,29.18-20.874,42.322c-7.709,11.403-21.238,24.747-35.028,28.326c20.813-13.963,33.465-33.114,37.957-57.743
	c-0.006,0.002-0.007,0.006-0.013,0.008c1.431-8.334,2.119-16.69,1.689-23.881c0.977,4.373,0.971,7.924,0.785,12.351
	c-0.052,1.242-0.439,3.468,1.582,3.506c2.267,0.043,2.209-2.925,2.56-4.544c2.119-9.769,3.498-19.799,5.465-29.643
	c3.468-17.36,6.227-35.864,17.396-49.724c10.426-12.937,30.966-17.134,44.147-6.287c5.648,4.648,10.599,11.066,10.059,18.674
	c-0.44,6.193-3.805,12.562-8.84,16.286c-4.472,3.308-10.588,4.16-15.18,2.977c-3.405-0.877-6.297-2.947-8.174-6.209
	c-1.536-2.67,0.132-9.086-3.855-8.947c-5.413,8.976,4.032,18.849,12.232,21.12c9.999,2.769,20.728-1.478,25.66-10.609l-0.014,0.022
	c-0.183-1.114,1.138-4.005,2.568-3.774c2.022,0.327,1.069,3.085,3.949,2.258c3.27-0.938,4.567-6.244,5.284-8.923
	c0.508-1.898,0.769-3.616,0.838-5.595c0.043-1.23-0.649-3.537-0.242-4.66c1.078-2.974,5.41-1.512,5.498-5.369
	C496.458,219.33,496.908,217.018,497.073,214.746z"/>
<path fill="#336699" d="M24.213,255.573c-5.684-3.331-6.797-9.245-8.325-14.927C18.407,245.759,19.389,251.738,24.213,255.573z"/>
<path fill="#336699" d="M20.973,207.938c0.934,1.868,1.868,3.736,3.043,6.085C21.26,212.498,21.688,209.878,20.973,207.938z"/>
<path fill="#336699" d="M95.119,287.809c0.051-0.249,0.189-0.526,0.474-0.598C95.308,287.283,95.17,287.56,95.119,287.809z"/>
<path fill="#336699" d="M93.601,276.501L93.601,276.501l0.112,0.002C93.656,276.502,93.601,276.501,93.601,276.501z"/>
<path fill="#336699" d="M94.101,274.505C92.628,274.297,94.259,274.583,94.101,274.505
	C94.101,274.505,94.101,274.505,94.101,274.505z"/>
<polygon fill="#336699" points="87.253,247.016 87.341,247.028 87.253,247.016 "/>
<path fill="#336699" d="M59.04,210.765c-0.041-0.115-0.081-0.231-0.122-0.346c0.073,0.013,0.146,0.025,0.219,0.038
	C59.261,210.617,59.228,210.719,59.04,210.765C59,210.65,59.097,210.732,59.04,210.765z"/>
<path fill="#336699" d="M94.503,275.85c0.245-0.386,0.234-0.818-0.295-1.344c1.004-1.325,1.612-2.893,2.407-4.337
	c-0.795,1.444-1.402,3.012-2.406,4.337C94.737,275.032,94.748,275.464,94.503,275.85z"/>
<path fill="#336699" d="M102.851,359.017c-0.059-0.018-0.112-0.063-0.174-0.072C102.739,358.954,102.792,358.999,102.851,359.017z"
	/>
<polygon fill="#336699" points="324.068,251.979 324.068,251.983 324.068,251.983 "/>
<path fill="#336699" d="M196.84,350.108c0,0,0.002,0,0.002-0.001C196.546,350.612,196.545,350.612,196.84,350.108z"/>
<path fill="#336699" d="M196.913,350.098C197.501,350.569,197.059,350.555,196.913,350.098
	C196.913,350.098,197.017,350.425,196.913,350.098z"/>
<path fill="#336699" d="M250.497,214.612L250.497,214.612c0.245,0.102,0.49,0.205,0.736,0.308
	C250.987,214.817,250.742,214.715,250.497,214.612z"/>
<path fill="#336699" d="M258.669,151.798L258.669,151.798c-0.667-0.005-1.259,0.23-1.774,0.705
	C257.41,152.028,258.002,151.793,258.669,151.798z"/>
<path fill="#336699" d="M173.337,138.348C173.337,138.348,173.337,138.348,173.337,138.348
	C172.726,138.589,172.726,138.589,173.337,138.348z"/>
<path fill="#336699" d="M173.445,138.564c0.044,0.088,0.076,0.171,0.051,0.232C173.521,138.735,173.489,138.652,173.445,138.564z"/>
<path fill="#336699" d="M206.075,307.912C205.52,307.943,205.52,307.943,206.075,307.912
	C206.075,307.912,205.936,307.92,206.075,307.912z"/>
<path fill="#336699" d="M211.872,311.853c-0.28-0.052-0.559-0.105-0.839-0.157c0.593,0.018,1.122,0.21,1.587,0.577
	C212.37,312.133,212.121,311.993,211.872,311.853z"/>
<path fill="#336699" d="M240.732,151.154c0.921-0.226,2.031,0.267,3.333,1.467l-0.001,0
	C242.762,151.421,241.652,150.928,240.732,151.154z"/>
<path fill="#336699" d="M394.57,286.581c0.006,0.056,0.016,0.112,0.023,0.168C394.586,286.692,394.576,286.637,394.57,286.581z"/>
<path fill="#336699" d="M491.581,203.814c0.01,0.009,0.021,0.012,0.033,0.01L491.581,203.814z"/>
<path fill="#336699" d="M476.935,199.591c0.01,0.002,0.02,0,0.029-0.006L476.935,199.591z"/>
<path fill="#336699" d="M474.954,192.838c-0.012,0.009-0.018,0.021-0.019,0.035L474.954,192.838z"/>
<path fill="#336699" d="M467.316,182.867c0.005,0.001,0.009,0,0.013-0.002L467.316,182.867z"/>
<path fill="#336699" d="M473.738,182.847c0.007,0.007,0.015,0.009,0.025,0.006L473.738,182.847z"/>
<path fill="#336699" d="M478.943,184.118c0.004,0.006,0.009,0.008,0.015,0.008L478.943,184.118z"/>
<polygon fill="#336699" points="474.543,182.884 474.549,182.887 474.552,182.885 "/>
<path fill="#336699" d="M464.103,179.687c0.008,0.005,0.016,0.005,0.026,0.003L464.103,179.687z"/>
<path fill="#336699" d="M262.052,507.548c-5.968-2.832-11.518-6.85-13.01-13.62c-0.509-2.31,0.536-7.355-2.043-8.474
	c-2.973-1.289-2.97,1.468-3.07,3.285c-0.404,7.395-3.669,13.213-9.957,17.336c-4.96,3.252-14.807,6.717-13.477,14.638
	c0.789,4.697,2.903,1.426,5.297,0.047c1.398-0.805,7.732-2.988,9.116-1.904c1.492,1.169,0.463,4.865,0.436,6.589
	c-0.064,4.07,0.93,6.391,2.892,9.768c2.12,3.649,5.243,18.92,10.463,10.161c1.821-3.055,2.169-6.912,3.864-9.773
	c0.706-1.193,2.003-1.679,2.664-3.07c0.673-1.417,0.732-3.571,0.914-5.093c0.398-3.34-1.854-8.422,1.988-9.161
	c3.523-0.677,7.071,1.085,9.869,2.761c4.203,2.518,3.997-2.375,2.558-5.582C268.9,511.772,265.643,509.252,262.052,507.548
	C255.445,504.413,266.517,509.666,262.052,507.548z M240.043,509.273l0.002-0.001c0.821,0.306,2.432,0.942,3.398,0.605
	C242.477,510.214,240.865,509.579,240.043,509.273z M249.847,508.881c-0.302,0.354-0.372,0.773,0.007,1.373c0,0,0,0,0,0.001
	C249.475,509.655,249.545,509.235,249.847,508.881C249.545,509.235,249.545,509.235,249.847,508.881z"/>
<path fill="#336699" d="M223.014,423.224c-3.35,7.529-4.333,17.294,0.344,24.523c1.138,1.758,5.312,7.564,8.032,5.159
	c2.741-2.424-3.357-6.075-2.097-9.275c1.034-2.626,5.313-1.629,7.478-3.652c2.65-2.476,2.882-6.317,2.906-9.671
	c0.016-2.252-0.187-4.466,0.466-6.667c0.282-0.951,1.654-2.739,1.458-3.669c-1.008-4.798-7.89,0.559-9.879,1.295
	c4.16-13.054,12.239-24.228,15.848-37.473c3.141,13.292,9.574,25.069,15.595,37.411c-2.414-1.242-6.065-3.819-8.955-3.262
	c-4.083,0.787-0.317,4.178,0.003,6.786c0.563,4.584-4.123,16.842,4.846,16.808c1.16,1.058,3.281-0.518,4.445,0.799
	c1.203,1.361-0.287,3.781-0.848,4.99c-0.848,1.831-3.049,5.718,0.825,6.115c1.984,0.203,3.8-2.202,4.838-3.567
	c6.852-9.012,5.982-19.43,2.395-29.384c-1.102-3.058-2.554-6.097-3.432-9.224c-0.436-1.553-0.712-2.873-0.587-4.47
	c0.089-1.14,1.058-2.809,0.798-3.897c-0.668-2.793-2.764-1.628-4.882-1.021c-2.844,0.815-2.754,0.611-4.039-2.39
	c-2.538-5.928-4.099-12.689-5.435-18.978c-0.683-3.217-0.063-15.159-4.903-14.636c-4.706-0.586-4.518,9.051-5.236,12.022
	c-1.71,7.084-3.802,14.459-6.746,21.145c-1.771,4.023-1.877,2.36-5.251,1.651c-3.536-0.743-3.34,0.63-2.686,3.111
	C229.98,410.115,225.571,417.478,223.014,423.224C220.54,428.785,224.88,419.031,223.014,423.224z"/>
<path fill="#336699" d="M272.774,278.243c7.978,1.261,9.768-11.464,1.163-12.012v0c-0.549-0.276-1.098-0.329-1.649-0.005
	c-3.109,0.174-5.776,2.931-6.947,5.617c-0.59,1.353-0.954,2.876-0.705,4.353c0.25,1.485,2.155,2.915,1.104,4.24
	c-1.466,1.847-9.93,1.971-12.102,2.189c-2.586,0.26-5.173,0.367-7.771,0.251c-1.137-0.051-2.36-0.366-3.461-0.334
	c-0.633,0.018-2.154,0.391-2.6,0.329c-1.107-0.154-4.812-1.244-5.753-1.865c-2.284-1.508-1.215-1.908-0.961-4.342
	c0.418-3.999-1.221-8.822-5.319-10.26c-9.199-3.228-13.285,10.521-3.679,11.905c0.971,0.14,3.37-0.705,4.203,0.132
	c0.848,0.851-0.279,2.495-0.123,3.508c0.428,2.762,3.49,4.485,5.577,5.913c2.199,1.504,4.728,3.432,7.29,4.28
	c2.893,0.958,4.908-0.408,5.382,3.216c0.382,2.919-1.273,5.69,1.123,8.217c1.321,1.394,2.975,1.081,2.735,3.409
	c-0.3,2.914-1.79,2.08-2.763,0.869c-2.263-2.815-2.219-6.203-5.74-8.368c-3.238-1.991-7.846-2.07-11.079-0.025
	c-3.335,2.109-6.456,9.211-0.195,9.295c2.361,0.032,3.502-1.392,5.926-0.18c2.063,1.032,3.441,3.474,4.273,5.523
	c1.956,4.821,2.296,10.7,2.869,15.822c0.34,3.043-0.895,11.285,4.261,10.269c5.472,1.458,4.329-4.68,4.609-8.445
	c0.437-5.884,0.99-12.396,3.862-17.691c2.279-4.202,5.815-6.168,10.508-5.73c2.052,0.191,3.186,1.036,4.058-1.139
	c0.726-1.812-1.069-4.81-2.157-6.117c-3.12-3.75-7.595-3.869-11.838-2.384c-2.454,0.859-3.121,1.81-3.698-1.36
	c-0.454-2.495-0.202-4.056,2.038-4.608c3.03-0.747,3.686,0.315,6.404-1.738c2.176-1.644,4.514-3.179,6.549-4.992
	c1.587-1.414,3.229-2.879,3.269-5.051C271.461,279.587,268.923,277.634,272.774,278.243
	C276.616,278.85,272.011,278.123,272.774,278.243z M249.498,302.913c0.859,0.005,1.502-0.309,1.929-0.941
	C251.005,302.61,250.362,302.923,249.498,302.913C250.059,302.898,250.059,302.898,249.498,302.913z"/>
<path fill="#336699" d="M196.697,287.598c4.738,1.078,8.891,3.24,13.556,3.796c1.802,0.215,5.095,0.46,6.88-0.18
	c0.729-0.262,1.812-1.416,2.215-1.542c0.476-0.148,1.231,0.323,1.793,0.156c2.004-0.594,8.606-2.644,5.261-5.937
	c-1.562-1.537-5.906-0.456-7.786-0.223c-2.887,0.358-5.406,0.271-8.193-0.637c-3.607-1.176-9.494-4.041-11.243-7.667
	c-0.853-1.77-0.319-3.519-2.023-4.876c-2.223-1.77-3.681-0.519-5.75,0.641c-1.973,1.106-4.09,2.052-5.923,3.386
	c-2.009,1.462-3.16,3.668-5.121,5.117c-4.194,3.098-5.222-4.035-10.409-2.637v0c-0.695-0.2-3.145,0.787-3.631,1.221
	c0.047,0.294,0.094,0.587,0.141,0.881h0c-0.047-0.293-0.094-0.587-0.14-0.881c-9.684,3.949-18.697,13.468-16.151,24.727
	c1.125,4.975,5.836,10.267,11.442,9.618c2.068-0.239,5.094-2.217,4.301-4.829c-0.969-3.191-3.561-0.595-5.34-0.087
	c-5.7,1.629-5.54-6.521-4.353-10.308c1.516-4.837,5.934-8.491,10.465-10.526c2.743-1.232,5.784-1.584,8.604-2.606
	c4.636-1.68,1.691-0.757,4.433,1.976c1.408,1.403,5.541,1.558,7.453,2.009C190.486,288.971,193.421,287.904,196.697,287.598
	C198.288,287.96,192.995,287.944,196.697,287.598z M170.036,277.752L170.036,277.752
	C170.012,277.523,170.012,277.523,170.036,277.752z"/>
<path fill="#336699" d="M287.861,148.647L287.861,148.647c0.235-2.014-0.779-3.089-2.673-3.503c-0.081,0.649-0.081,0.649,0,0
	c-0.367-0.295-0.77-0.427-1.238-0.276c-1.959-0.644-4.8,0.238-5.026,2.637c-0.175,1.855,1.661,2.85,3.046,3.761
	c2.146,1.411,3.754,1.667,2.349,4.296c-1.151,2.155-4.087,4.208-5.548,6.368c-1.78,2.631-7.872,9.468-6.053,12.219
	c2.877,4.351,8.259-5.966,9.965-8.064c1.79-2.201,3.874-5.202,6.293-6.757c2.175-1.399,3.243-0.811,5.901-1.518
	c4.734-1.259,11.453-5.052,16.404-2.1c3.214,1.917,1.641,3.378,0.421,5.545c-0.724,1.286-1.242,0.998-0.852,2.493
	c0.077,0.294,1.851,2.082,2.119,2.244c4.513,2.708,8.426-3.48,7.669-7.604c0.925-3.298-1.763-7.14-5.397-7.723
	c-0.708-1.255-5.215-1.218-6.422-1.288c-1.5-0.087-7.072,1.353-8.119,0.277c-2.122-2.184,19.711-12.845,23.018-13.384
	c3.87-0.631,10.207-1.933,13.839,0.069c5.35,2.949-1.865,4.62-0.637,8.21c1.09,3.187,4.786,4.291,7.664,2.886
	c2.12-1.034,5.409-5.796,4.052-8.358c-0.001,0.001-0.001,0.003-0.002,0.004c0.172-3.28-1.21-4.587-2.407-7.514
	c4.507,0.365,7.687,2.944,10.609,6.267c0.096,1.682-0.227,6.123,2.321,6.624c1.761,0.346,3.372-2.197,3.051-3.77
	c1.568,0.346,0.988-2.915,3.49,0.794c1.476,2.187,2.077,5.086,1.737,7.68c-0.28,2.132-3.363,5.176-3.131,6.947
	c0.113,0.861,2.598,3.065,3.189,3.17c1.96,0.349,4.998-3.514,5.665-5.042c0.709-1.624,0.894-3.477,1.154-5.127
	c0.98-6.223-2.565-10.948-6.068-15.542c7.07,1.501,19.824,10.513,15.094,19.041c-1.422,2.564-5.123,4.633-1.206,7.624
	c4.347,3.318,8.086-4.143,9.846-6.714c2.472,4.204,1.971,10.321,2.362,15.045c-1.646,1.749-1.495,5.041-2.694,7.247
	c-1.851,3.404-4.689,5.667-7.749,7.917c-5.049,3.714-10.822,6.271-16.326,2.434c-1.243-0.866-5.486-4.304-3.086-5.999
	c1.273-0.899,3.17,3.14,5.781,2.228c5.938-2.075,5.378-11.067-0.858-12.197c-0.963-1.05-4.195-0.681-5.217,0.335l0.001,0.001
	c-6.125-0.643-8.199,7.277-6.827,11.741c1.603,5.216,5.417,10.657,11.492,11.966c11.676,2.517,21.473-4.88,26.4-14.763
	c0.288-3.373,2.692-6.95,3.217-10.47c0.579-3.884,0.419-7.809-0.292-11.667c-0.64-3.476-1.592-7.592-3.296-10.731
	c-1.306-2.407-3.558-3.04-5.394-4.963c-5.058-5.298-9.082-9.477-16.135-12.403c-6.814-2.826-14.111-3.825-21.457-3.806
	c-10.725,0.027-21.93,1.553-30.328,4.467c-6.426,2.23-12.746,5.906-18.423,9.592c-2.901,1.884-5.698,3.934-8.348,6.152
	C293.474,146.762,288.876,152.659,287.861,148.647z"/>
<path fill="#336699" d="M224.327,475.769c3.767,1.259,7.349-0.037,8.844-3.769c1.763-4.402-1.005-4.768-3.347-7.643
	c-1.164-1.428-1.422-2.698,0.954-3.54c2.221-0.787,4.548,0.896,6.209,2.153c1.261,0.954,8.349,9.24,7.491,2.601
	c-0.437-3.387-5.568-6.278-8.297-7.529c-3.623-1.661-7.56-1.907-11.187-0.115C217.906,461.429,215.406,472.788,224.327,475.769
	C228.218,477.069,219.803,474.257,224.327,475.769z"/>
<path fill="#336699" d="M149.81,261.465c-3.923,2.167-9.157,5.862-13.929,4.558c-3.604-0.985-5.307-7.572-9.115-6.028
	c-3.896,1.58-2.507,7.515-0.279,9.815c1.41,1.455,3.571,1.717,4.936,3.07c1.334,1.322,1.125,3.727,2.982,4.549
	c1.717,0.76,4.229-0.796,5.784-1.192c2.514-0.641,5.077-0.671,7.658-0.549c2.358,0.111,4.696,0.526,7.022-0.112
	c2.005-0.55,3.478-2.786,5.137-3.243c2.667-0.735,0.586,0.051,2.828,1.74c1.372,1.034,3.629,0.785,5.214,0.549
	c5.032-0.749,6.687-5.771,11.146-7.75v0c3.399,0.931,3.358,5.468,6.896,5.721c3.239,0.232,5.762-4.357,4.97-7.236
	c-0.243-0.012-0.486-0.024-0.73-0.036l0,0c0.242,0.012,0.486,0.024,0.73,0.036c0.005-0.833,0.102-1.325-0.41-1.999
	c-0.261,0.004-0.522,0.009-0.784,0.013v0c0.26-0.004,0.522-0.008,0.784-0.013c0.002-0.269,0.004-0.539,0.006-0.808
	c-0.292,0.032-0.583,0.065-0.875,0.097v0c0.29-0.032,0.583-0.065,0.875-0.097c-1.799-5.689-6.566-8.994-13.018-9.026v0
	c-1.611-0.566-3.228-0.302-4.846-0.037v0C164.55,253.672,156.848,257.576,149.81,261.465
	C147,263.017,156.761,257.624,149.81,261.465z"/>
<path fill="#336699" d="M264.044,464.758c-6.559,3.046-3.734,12.179,3.295,11.651c7.578-0.569,10.179-9.241,6.134-14.856
	c-4.166-5.783-11.591-5.439-17.33-2.153c-2.101,1.203-6.471,4.598-6.708,7.298c-0.396,4.504,3.894,0.943,5.3-0.624
	c0.003,0.003,0.007,0.006,0.01,0.009c1.737-1.985,4.14-4.784,6.953-5.088C264.15,460.729,267.771,463.028,264.044,464.758z"/>
<path fill="#336699" d="M172.819,287.121c-3.484,1.684-6.031,13.015-1.915,10.775c0.705-0.383,1.519-2.828,2.043-3.521
	c0.926-1.226,2.369-2.1,3.244-3.294C178.133,288.434,176.422,285.38,172.819,287.121
	C170.371,288.305,174.384,286.365,172.819,287.121z"/>
<path fill="#336699" d="M239.643,474.27c0.254,3.322,6.414,1.95,8.453,1.906c1.017-0.022,9.469-0.07,5.575-3.433
	C251.484,472.01,239.347,470.384,239.643,474.27C239.741,475.548,239.532,472.82,239.643,474.27z"/>
<path fill="#336699" d="M180.583,290.92c-0.818,1.603-3.633,5.616-1.169,6.926c2.102,1.465,5-3.183,5.536-5.104
	C185.671,290.158,182.011,288.119,180.583,290.92z"/>
<path fill="#336699" d="M321.524,289.02c0.899,1.172,2.2,1.97,3.09,3.162c0.904,1.21,0.967,2.723,1.712,3.873
	c2.397,3.697,3.777,0.697,3.462-2.505c-0.295-2.995-1.845-7.424-4.985-8.649c-1.388-0.542-3.221-0.791-4.263,0.713
	C319.311,287.388,320.479,287.658,321.524,289.02z"/>
<path fill="#336699" d="M175.638,271.471c-3.494,3.289,2.195,8.578,5.673,5.712C185.434,273.786,179.283,268.04,175.638,271.471z"/>
<path fill="#336699" d="M240.501,453.874C240.501,453.874,240.501,453.873,240.501,453.874c3.369,2.274,1.699,6.685,4.229,9.002
	c3.589,3.286,3.986-2.581,5.031-4.547c0.91-1.713,2.071-2.129,3.357-3.355c2.154-2.052,0.386-1.552,0.745-4.148
	c0.254-1.838,2.218-2.815,2.177-4.898c-0.042-2.135-1.625-3.795-3.476-4.604c-2.567-1.122-6.54-0.421-8.726,0.149
	c-3.131,0.817-6.623,2.445-5.154,6.382c0.771,2.065,1.024,1.373,0.846,3.508C239.419,452.699,237.585,454.073,240.501,453.874
	C240.501,453.874,238.761,453.993,240.501,453.874z"/>
<path fill="#336699" d="M258.161,138.881c5.126-0.564,4.099-3.51,6.716-6.987c2.423-3.22,7.302-6.636,11.417-7.119
	c2.828-0.331,8.222,1.649,4.681,4.238c-0.762,0.557-3.078,0.444-3.521,1.24c-0.598,1.075,0.832,2.106,0.567,3.196
	c2.484,8.546,12.741,5.943,14.484-1.538c0.003,0.016,0.001,0.03,0.005,0.046c2.671-2.53,1.657-7.418,0.458-9.448
	c-2.981-5.047-7.966-7.741-13.821-8.05c-13.423-0.708-20.614,10.628-23.386,22.143C255.868,137.937,256.7,139.042,258.161,138.881
	C260.421,138.632,256.535,139.06,258.161,138.881z"/>
<path fill="#336699" d="M315.258,288.118c-1.068-0.528-2.317-0.303-2.949,0.741c-0.961,1.588-0.032,1.646,0.823,2.872
	c0.811,1.162,4.072,7.249,5.218,7.384c4.164,0.491-0.612-9.699-2.281-10.883c-0.025,0.211-0.025,0.211,0,0
	C315.798,288.194,315.528,288.156,315.258,288.118C314.061,287.526,315.528,288.156,315.258,288.118z"/>
<path fill="#336699" d="M225.807,47.335c1.722,1.44,0.132,2.332,0.014,3.922c-0.127,1.716,0.055,2.183,1.11,3.704
	c2.033,2.931,4.959,5.013,8.079,6.629c7.108,3.682,10.099,9.037,12.043,16.676c0.998,3.924,1.162,7.879,1.37,11.9
	c0.08,1.541-0.841,7.187,2.435,5.969c1.888-0.702,1.018-5.309,1.146-7.018c0.342-4.56,1.164-9.081,2.382-13.49
	c2.079-7.532,4.312-12.058,11.483-15.385c2.551-1.184,6.806-3.656,8.451-6.055c1.181-1.722,0.295-2.093,0.478-3.783
	c0.199-1.836,0.596-1.654,1.826-3.133c1.979-2.382,2.941-4.958,4.107-7.781c1.72-4.164-0.41-4.398-4.734-4.984
	c-1.424-0.193-4.581,0.778-5.787,0.291c-1.362-0.551-0.707-1.736-1.663-2.447c-2.657-1.976-5.186,1.309-6.68,3.331
	c-3.827,5.182-11.539,7.673-17.704,4.296c-3.055-1.673-4.098-5.261-6.978-7.188c-0.884-0.592-2.979-1.774-4.121-1.508
	c-2.808,0.654-0.537,1.062-0.525,2.868c-2.785,1.185-10.766-2.472-11.795,2.216C220.111,39.239,223.708,45.58,225.807,47.335z"/>
<path fill="#336699" d="M255.739,94.385c-0.343,2.591,1.845,2.077,3.211,1.009c2.229-1.742,3.166-4.399,5.844-5.934
	c5.455-3.128,12.005,0.576,16.872-3.087c4.022-3.027-0.064-2.608,0.657-5.779c0.438-1.926,4.825-1.861,6.434-2.825
	c0.847-0.507,2.318-1.406,2.506-2.483c0.192-1.097-1.076-1.801-0.757-2.702c0.987-2.787,8.391-0.995,9.856-0.203
	c-0.496-12.938-19.12-12.433-27.543-8.119C261.012,70.31,257.356,82.176,255.739,94.385
	C255.637,95.151,256.941,85.306,255.739,94.385z"/>
<path fill="#336699" d="M201.514,71.462c1.435-0.381,7.932-0.77,8.614,1.344c0.124,0.386-1.177,1.291-1.066,2.167
	c0.124,0.978,1.892,2.233,2.736,2.756c1.72,1.064,5.689,0.692,6.234,2.739c0.218,0.818-1.369,2.081-1.181,3.265
	c0.167,1.051,1.39,2.491,2.277,3.102c2.422,1.667,4.86,0.598,7.508,0.339c2.947-0.288,5.799,0.148,8.424,1.552
	c2.782,1.488,4.106,4.011,6.463,5.853c3.549,2.774,3.336-0.491,3.014-3.366c-1.418-12.66-8.366-25.351-21.415-28.897
	c-5.243-1.425-11.158-1.397-16.162,0.872C204.796,64.169,195.11,73.162,201.514,71.462z"/>
<path fill="#336699" d="M247.788,38.143c4.516,2.261,10.642-2.207,13.599-5.445c2.918-3.195,4.646-7.669,4.284-12.022
	c-0.261-3.14-0.85-2.477-2.967-3.766c-1.983-1.208-2.123-1.695-3.257-4.063c-1.305-2.725-5.186-10.545-8.417-11.322
	c-3.267-0.786-7.791,7.767-8.774,10.381c-0.446,1.185,0.045,3.777-0.847,4.613c-1.1,1.032-2.789-0.417-3.943,0.634
	c-2.297,2.091-0.122,8.777,0.891,11.132C240.202,32.571,243.602,36.047,247.788,38.143C249.387,38.944,240.412,34.45,247.788,38.143
	z"/>
<path fill="#336699" d="M252.817,121.204c2.528-5.912,6.325-10.938,12.67-13.023c3.773-1.24,6.781-0.449,10.541-0.752
	c3.479-0.28,2.754-2.106,0.588-4.194c-2.014-1.941-4.834-3.196-7.665-3.148c-1.473,0.025-2.986,0.998-4.378,0.914
	c-1.416-0.085-2.203-1.338-3.482-1.384c-2.402-0.085-5.454,2.449-6.993,4.155c-1.312,1.455-2.407,7.104-3.76,7.364
	c-1.42-3.702-2.452-7.513-5.844-9.936c-1.017-0.726-3.351-2.291-4.673-2.158c-1.936,0.194-1.564,1.437-3.262,1.872
	c-1.12,0.287-3.382-0.912-4.583-1.006c-1.592-0.125-3.206-0.029-4.707,0.558c-3.24,1.266-5.158,4.286-6.253,7.43
	c13.525-2.489,22.656,2.372,26.672,15.633c-0.342,0.015-0.684,0.029-1.025,0.043c-0.379,1.699,0.319,3.219,0.803,4.776h0
	c0.003,0.256,0.006,0.512,0.008,0.768c0.295,0.003,0.591,0.006,0.886,0.009c-0.295-0.003-0.591-0.006-0.886-0.009
	c-0.509,0.535-0.505,1.078-0.029,1.63c0.281-0.025,0.562-0.051,0.844-0.076v0c-0.281,0.025-0.563,0.051-0.844,0.076
	c0.389,0.892,1.044,3.873,2.459,3.879c1.151,0.005,2.178-3.514,1.902-4.321h0c-0.002-0.255-0.003-0.51-0.005-0.766
	c-0.223-0.007-0.446-0.014-0.668-0.021c0.223,0.007,0.446,0.014,0.668,0.021c0.502-0.601,0.758-1.239,0.304-1.984
	c-0.583-0.048-0.583-0.048,0,0c0.032-0.269,0.064-0.537,0.096-0.805c-0.214,0.001-0.427,0.001-0.641,0.002
	C251.056,125.031,252.03,123.042,252.817,121.204C255.363,115.249,252.239,122.555,252.817,121.204z M248.029,128.327
	c0.063-0.002,0.127-0.005,0.19-0.007v0C248.155,128.322,248.092,128.325,248.029,128.327z"/>
<path fill="#336699" d="M222.439,121.886c5.653-0.029,9.774,3.459,12.646,8.001c1.411,2.23,2.202,5.257,5.094,5.808
	c2.78,0.529,4.046-0.832,3.778-3.221c-0.553-4.941-5.609-11.322-9.472-14.171c-4.53-3.342-10.523-5.015-16.114-3.96
	c-8.763,1.654-17.508,16.04-6.424,21.247c4.902,2.303,13.987-4.115,7.63-5.562c-2.349-0.535-4.086-0.103-3.066-3.67
	C217.24,123.816,219.784,121.9,222.439,121.886C227.624,121.859,219.234,121.903,222.439,121.886z"/>
</svg>
